<svg width="38" height="36" viewBox="0 0 38 36" fill="none" xmlns="http://www.w3.org/2000/svg">
<path fill-rule="evenodd" clip-rule="evenodd" d="M24.2963 22.97C23.9563 23.59 23.2963 24 22.5463 24H15.0963L13.9963 26H25.9963V28H13.9963C12.4763 28 11.5163 26.37 12.2463 25.03L13.5963 22.59L9.99628 15H7.99628V13H11.2663L12.2063 15H27.0063C27.7663 15 28.2463 15.82 27.8763 16.48L24.2963 22.97ZM25.3063 17H13.1563L15.5263 22H22.5463L25.3063 17ZM13.9963 29C12.8963 29 12.0063 29.9 12.0063 31C12.0063 32.1 12.8963 33 13.9963 33C15.0963 33 15.9963 32.1 15.9963 31C15.9963 29.9 15.0963 29 13.9963 29ZM22.0063 31C22.0063 29.9 22.8963 29 23.9963 29C25.0963 29 25.9963 29.9 25.9963 31C25.9963 32.1 25.0963 33 23.9963 33C22.8963 33 22.0063 32.1 22.0063 31Z" fill="#4B4B4B"/>
<circle cx="29" cy="11" r="8" fill="#F2726F"/>
<path d="M25.9034 15V14.233L28.7841 11.0795C29.1222 10.7102 29.4006 10.3892 29.6193 10.1165C29.8381 9.84091 30 9.58239 30.1051 9.34091C30.2131 9.09659 30.267 8.84091 30.267 8.57386C30.267 8.26705 30.1932 8.00142 30.0455 7.77699C29.9006 7.55256 29.7017 7.37926 29.4489 7.2571C29.196 7.13494 28.9119 7.07386 28.5966 7.07386C28.2614 7.07386 27.9688 7.14347 27.7188 7.28267C27.4716 7.41903 27.2798 7.6108 27.1435 7.85795C27.0099 8.10511 26.9432 8.39489 26.9432 8.72727H25.9375C25.9375 8.21591 26.0554 7.76705 26.2912 7.38068C26.527 6.99432 26.848 6.69318 27.2543 6.47727C27.6634 6.26136 28.1222 6.15341 28.6307 6.15341C29.142 6.15341 29.5952 6.26136 29.9901 6.47727C30.3849 6.69318 30.6946 6.98437 30.919 7.35085C31.1435 7.71733 31.2557 8.125 31.2557 8.57386C31.2557 8.89489 31.1974 9.20881 31.081 9.51562C30.9673 9.8196 30.7685 10.1591 30.4844 10.5341C30.2031 10.9062 29.8125 11.3608 29.3125 11.8977L27.3523 13.9943V14.0625H31.4091V15H25.9034Z" fill="white"/>
</svg>
